<svg width="1600" height="1361" viewBox="0 0 1600 1361" fill="none" xmlns="http://www.w3.org/2000/svg"><path d="M1600 0.533203H0V1360.53H1600V0.533203Z" fill="#5AD1CB"/><path d="M1600 1109.08V1278.93C1586.6 1283.28 1572.37 1284.39 1558.46 1282.18C1544.55 1279.97 1531.36 1274.5 1519.97 1266.21C1508.58 1257.93 1499.31 1247.07 1492.92 1234.52C1486.52 1221.97 1483.19 1208.09 1483.19 1194C1483.19 1179.92 1486.52 1166.04 1492.92 1153.49C1499.31 1140.94 1508.58 1130.08 1519.97 1121.79C1531.36 1113.51 1544.55 1108.04 1558.46 1105.83C1572.37 1103.62 1586.6 1104.73 1600 1109.07V1109.08Z" fill="#3CC6BF"/><path d="M1567.46 1360.25H1577.33V1145.73C1577.33 1144.42 1576.81 1143.16 1575.88 1142.24C1574.96 1141.31 1573.7 1140.79 1572.39 1140.79C1571.08 1140.79 1569.83 1141.31 1568.9 1142.23C1567.98 1143.16 1567.46 1144.42 1567.46 1145.73V1360.25Z" fill="#24BCB1"/><path d="M1575.14 1191.27 1547.19 1160.14C1546.31 1159.17 1545.09 1158.58 1543.78 1158.51 1542.48 1158.44 1541.19 1158.89 1540.22 1159.76 1539.25 1160.64 1538.66 1161.86 1538.59 1163.17 1538.52 1164.48 1538.97 1165.76 1539.84 1166.73L1570.88 1201.3 1575.14 1191.27ZM1575.14 1226.78 1547.19 1195.65C1546.31 1194.67 1545.09 1194.09 1543.78 1194.02 1542.48 1193.95 1541.19 1194.4 1540.22 1195.27 1539.25 1196.15 1538.66 1197.37 1538.59 1198.68 1538.52 1199.99 1538.97 1201.27 1539.85 1202.24L1570.88 1236.81 1575.14 1226.78Z" fill="#24BCB1"/><path d="M1104.8 1281.11C1157.17 1281.11 1199.63 1238.65 1199.63 1186.28C1199.63 1133.91 1157.17 1091.46 1104.8 1091.46C1052.43 1091.46 1009.97 1133.91 1009.97 1186.28C1009.97 1238.65 1052.43 1281.11 1104.8 1281.11Z" fill="#3CC6BF"/><path d="M1099.86 1360.25H1109.73V1145.73C1109.73 1144.42 1109.21 1143.16 1108.29 1142.24C1107.36 1141.31 1106.11 1140.79 1104.8 1140.79C1104.15 1140.79 1103.51 1140.92 1102.91 1141.16C1102.31 1141.41 1101.77 1141.78 1101.31 1142.23C1100.85 1142.69 1100.49 1143.24 1100.24 1143.84C1099.99 1144.44 1099.86 1145.08 1099.86 1145.73V1360.25Z" fill="#24BCB1"/><path d="M1107.55 1191.27 1079.59 1160.14C1078.72 1159.16 1077.49 1158.58 1076.19 1158.51 1074.88 1158.44 1073.6 1158.89 1072.63 1159.76 1071.65 1160.64 1071.06 1161.86 1070.99 1163.17 1070.92 1164.48 1071.38 1165.76 1072.25 1166.73L1103.28 1201.3 1107.55 1191.27ZM1107.55 1226.78 1079.59 1195.65C1078.72 1194.67 1077.49 1194.09 1076.19 1194.02 1074.88 1193.95 1073.6 1194.4 1072.63 1195.27 1071.65 1196.15 1071.06 1197.37 1070.99 1198.68 1070.92 1199.99 1071.38 1201.27 1072.25 1202.24L1103.28 1236.81 1107.55 1226.78Z" fill="#24BCB1"/><path d="M1465.81 719.041C1434.94 719.041 1409.51 841.111 1406.09 998.273H1525.54C1522.11 841.111 1496.68 719.041 1465.81 719.041Z" fill="#3CC6BF"/><path d="M1460.88 998.273H1470.75V776.015C1470.75 775.366 1470.62 774.725 1470.37 774.126C1470.12 773.527 1469.76 772.983 1469.3 772.525C1468.84 772.066 1468.3 771.703 1467.7 771.455C1467.1 771.207 1466.46 771.079 1465.81 771.08C1464.5 771.08 1463.25 771.6 1462.32 772.525C1461.4 773.451 1460.88 774.706 1460.88 776.015V998.273Z" fill="#24BCB1"/><path d="M1468.56 869.96L1440.61 838.825C1439.73 837.851 1438.51 837.264 1437.2 837.194C1435.89 837.123 1434.61 837.575 1433.64 838.449C1432.66 839.323 1432.08 840.549 1432.01 841.856C1431.94 843.163 1432.39 844.445 1433.26 845.419L1464.3 879.985L1468.56 869.96Z" fill="#24BCB1"/><path d="M1264.98 1139.08H1171.46V1360.53H1264.98V1139.08Z" fill="#C0F4F9"/><path d="M1218.26 1053.95C1218.26 1053.95 1235 1096.71 1274.93 1144.13 1275.46 1144.75 1275.79 1145.51 1275.9 1146.32 1276 1147.12 1275.88 1147.94 1275.53 1148.68 1275.19 1149.42 1274.64 1150.04 1273.96 1150.48 1273.27 1150.92 1272.47 1151.15 1271.66 1151.15H1164.78C1163.97 1151.15 1163.17 1150.92 1162.48 1150.48 1161.8 1150.04 1161.25 1149.42 1160.91 1148.68 1160.56 1147.95 1160.44 1147.13 1160.54 1146.32 1160.65 1145.51 1160.98 1144.75 1161.51 1144.13 1201.45 1096.71 1218.26 1053.95 1218.26 1053.95ZM1599.99 619.146V714.466H1476.65L1558.15 518.536 1599.99 619.146Z" fill="#2BBCB8"/><path d="M1600 732.839H1472.42C1490.3 800.634 1482.49 901.409 1472.42 1005.08H1600V732.839Z" fill="#C0F4F9"/><path d="M1585.61 902.106V882.502H1560.14V901.512H1540.01V882.502H1513.18V901.512H1493.46V882.502H1467.99V901.512H1447.86V882.502H1421.02V901.512H1400.9V882.502H1375.97V1005.08H1600V902.106H1585.61ZM140.821 916.686H0V588.066C44.39 587.756 133.7 587.896 133.66 588.486 130.81 629.536 121.69 661.816 121.69 708.616 121.69 761.306 137 794.096 138.15 844.816 138.18 846.186 138.89 864.636 139.58 882.506 140.211 899.186 140.821 915.366 140.821 916.686Z" fill="#A3E5EF"/><path d="M184.25 902.106V1005.08H0V882.506H21.78C21.8037 882.506 21.8271 882.511 21.849 882.52C21.8709 882.529 21.8908 882.542 21.9076 882.559C21.9243 882.576 21.9376 882.595 21.9466 882.617C21.9556 882.639 21.9601 882.663 21.96 882.686V901.516H42.09V882.686C42.0899 882.663 42.0944 882.639 42.1034 882.617C42.1124 882.595 42.1257 882.576 42.1424 882.559C42.1592 882.542 42.1791 882.529 42.201 882.52C42.2229 882.511 42.2463 882.506 42.27 882.506H67.38C67.4037 882.506 67.4271 882.511 67.449 882.52C67.4709 882.529 67.4908 882.542 67.5076 882.559C67.5243 882.576 67.5376 882.595 67.5466 882.617C67.5556 882.639 67.5601 882.663 67.56 882.686V901.516H87.28V882.686C87.2799 882.663 87.2844 882.639 87.2934 882.617C87.3024 882.595 87.3157 882.576 87.3324 882.559C87.3492 882.542 87.3691 882.529 87.391 882.52C87.4129 882.511 87.4363 882.506 87.46 882.506H113.94C113.964 882.506 113.987 882.511 114.009 882.52C114.031 882.529 114.051 882.542 114.068 882.559C114.084 882.576 114.098 882.595 114.107 882.617C114.116 882.639 114.12 882.663 114.12 882.686V901.516H134.24V882.686C134.242 882.639 134.261 882.594 134.294 882.561C134.328 882.527 134.373 882.508 134.42 882.506H159.72V902.106H184.25Z" fill="#8FD8E5"/><path d="M86.2299 649.751H65.4349C64.3196 649.753 63.2507 650.198 62.4632 650.988 61.6756 651.777 61.2338 652.847 61.2349 653.962V663.341C61.2338 664.457 61.6756 665.527 62.4631 666.317 63.2507 667.107 64.3195 667.551 65.4349 667.553H86.2349C87.3502 667.551 88.4191 667.107 89.2066 666.317 89.9942 665.527 90.4359 664.457 90.4349 663.341V653.962C90.4354 653.41 90.327 652.862 90.116 652.352 89.9049 651.841 89.5953 651.377 89.2048 650.986 88.8143 650.595 88.3506 650.284 87.8401 650.073 87.3297 649.861 86.7825 649.752 86.2299 649.751ZM121.818 681.81H101.023C99.9079 681.812 98.839 682.257 98.0515 683.046 97.264 683.836 96.8222 684.906 96.8232 686.022V695.4C96.8222 696.515 97.264 697.585 98.0515 698.375 98.839 699.165 99.9079 699.609 101.023 699.612H121.823C122.939 699.609 124.007 699.165 124.795 698.375 125.583 697.585 126.024 696.515 126.023 695.4V686.022C126.024 685.469 125.915 684.922 125.704 684.411 125.493 683.9 125.184 683.436 124.793 683.045 124.403 682.653 123.939 682.343 123.429 682.131 122.918 681.919 122.371 681.81 121.818 681.81ZM31.3471 766.769H11.0571C10.4712 766.769 9.89119 766.885 9.3501 767.109 8.80901 767.334 8.31747 767.663 7.90357 768.078 7.48968 768.492 7.16153 768.984 6.93788 769.526 6.71422 770.067 6.59944 770.648 6.6001 771.234V780.106C6.59944 780.691 6.71419 781.271 6.93778 781.813 7.16137 782.354 7.48943 782.846 7.90322 783.261 8.31701 783.676 8.80843 784.005 9.34941 784.229 9.89038 784.454 10.4703 784.57 11.0561 784.571H31.3461C31.9319 784.57 32.5118 784.454 33.0528 784.229 33.5938 784.005 34.0852 783.676 34.499 783.261 34.9128 782.846 35.2408 782.354 35.4644 781.813 35.688 781.271 35.8028 780.691 35.8021 780.106V771.234C35.8028 770.648 35.688 770.068 35.4645 769.526 35.241 768.985 34.913 768.493 34.4993 768.078 34.0856 767.664 33.5943 767.335 33.0535 767.11 32.5126 766.885 31.9328 766.769 31.3471 766.769ZM114.116 825.649H93.3211C92.2058 825.652 91.1369 826.096 90.3493 826.886 89.5618 827.676 89.12 828.746 89.1211 829.861V839.239C89.12 840.355 89.5618 841.425 90.3493 842.215 91.1369 843.004 92.2058 843.449 93.3211 843.451H114.121C115.236 843.449 116.305 843.004 117.093 842.215 117.88 841.425 118.322 840.355 118.321 839.239V829.861C118.322 829.309 118.213 828.761 118.002 828.25 117.791 827.74 117.482 827.275 117.091 826.884 116.701 826.493 116.237 826.183 115.726 825.971 115.216 825.759 114.669 825.65 114.116 825.649ZM92.5858 715.46H71.7908C70.6756 715.463 69.6068 715.908 68.8194 716.697 68.0319 717.487 67.59 718.557 67.5908 719.672V729.05C67.5898 730.166 68.0315 731.236 68.8191 732.026 69.6066 732.815 70.6755 733.26 71.7908 733.262H92.5908C93.7062 733.26 94.775 732.815 95.5626 732.026 96.3501 731.236 96.7919 730.166 96.7908 729.05V719.672C96.7916 718.556 96.3491 717.486 95.5605 716.696 94.7719 715.906 93.7019 715.462 92.5858 715.46ZM47.8651 634.318H27.5751C26.9894 634.319 26.4096 634.435 25.8687 634.659 25.3278 634.884 24.8364 635.213 24.4226 635.628 24.0088 636.042 23.6808 636.534 23.4571 637.075 23.2335 637.617 23.1186 638.197 23.1191 638.782V647.655C23.1185 648.241 23.2332 648.821 23.4568 649.363 23.6804 649.904 24.0085 650.396 24.4223 650.811 24.8361 651.226 25.3275 651.555 25.8684 651.779 26.4094 652.004 26.9894 652.12 27.5751 652.12H47.8651C48.4509 652.12 49.0309 652.004 49.5718 651.779 50.1128 651.555 50.6042 651.226 51.018 650.811 51.4318 650.396 51.7599 649.904 51.9835 649.363 52.2071 648.821 52.3218 648.241 52.3211 647.655V638.782C52.3217 638.197 52.2068 637.617 51.9832 637.075 51.7595 636.534 51.4314 636.042 51.0177 635.628 50.6039 635.213 50.1125 634.884 49.5716 634.659 49.0307 634.435 48.4508 634.319 47.8651 634.318Z" fill="#92E2EA"/><path d="M37.0449 861.065H72.9339V801.851C72.9334 797.268 71.1124 792.873 67.8715 789.632C64.6306 786.391 60.2351 784.571 55.6519 784.57H54.3259C49.7428 784.571 45.3475 786.391 42.1067 789.632C38.8659 792.873 37.0452 797.268 37.0449 801.851V861.065Z" fill="#C0F4F9"/><path d="M65.7 853.833V802.514C65.7 799.673 64.5711 796.947 62.5617 794.938C60.5522 792.928 57.8268 791.799 54.985 791.799C52.1432 791.799 49.4178 792.928 47.4084 794.938C45.3989 796.947 44.27 799.673 44.27 802.514V853.833H65.7Z" fill="#09798C"/><path d="M31.7739 857.663C31.7739 858.944 32.2831 860.174 33.1895 861.08 34.0958 861.986 35.3251 862.495 36.6069 862.495H73.3719C74.0066 862.495 74.6351 862.371 75.2214 862.128 75.8078 861.885 76.3406 861.529 76.7894 861.08 77.2382 860.631 77.5942 860.098 77.837 859.512 78.0799 858.926 78.2049 858.297 78.2049 857.663V853.833H31.7739V857.663ZM37.0449 757.664H72.9339V698.45C72.9334 693.867 71.1124 689.472 67.8715 686.231 64.6306 682.99 60.2351 681.17 55.6519 681.169H54.3259C49.7428 681.17 45.3475 682.99 42.1067 686.231 38.8659 689.472 37.0452 693.867 37.0449 698.45V757.664Z" fill="#C0F4F9"/><path d="M65.7 750.433V699.113C65.7 696.272 64.5711 693.546 62.5617 691.537C60.5522 689.527 57.8268 688.398 54.985 688.398C52.1432 688.398 49.4178 689.527 47.4084 691.537C45.3989 693.546 44.27 696.272 44.27 699.113V750.433H65.7Z" fill="#09798C"/><path d="M31.7739 754.262C31.7739 755.543 32.2831 756.773 33.1895 757.679C34.0958 758.585 35.3251 759.095 36.6069 759.095H73.3719C74.0066 759.095 74.6351 758.97 75.2214 758.727C75.8078 758.484 76.3406 758.128 76.7894 757.679C77.2382 757.23 77.5942 756.697 77.837 756.111C78.0799 755.525 78.2049 754.896 78.2049 754.262V750.434H31.7739V754.262Z" fill="#C0F4F9"/><path d="M41.121 991.247 0 961.727V953.127C5.91735 945.944 13.137 939.942 21.28 935.437 21.5023 935.318 21.7474 935.248 21.9989 935.231 22.2504 935.215 22.5025 935.252 22.7383 935.341 22.9741 935.43 23.1882 935.569 23.3661 935.747 23.544 935.926 23.6818 936.14 23.77 936.377L43.78 989.197C43.9136 989.549 43.9304 989.934 43.828 990.296 43.7255 990.659 43.5093 990.978 43.2111 991.208 42.913 991.438 42.5488 991.566 42.1724 991.573 41.796 991.58 41.4274 991.465 41.121 991.247ZM52.4999 989.673 31.0119 932.96C30.9279 932.741 30.8887 932.507 30.8965 932.272 30.9043 932.037 30.959 931.805 31.0574 931.592 31.1558 931.378 31.2958 931.187 31.4694 931.028 31.6429 930.869 31.8464 930.747 32.0679 930.668 46.3667 925.716 61.918 925.731 76.2069 930.712 76.4279 930.792 76.6309 930.914 76.8039 931.073 76.9769 931.232 77.1165 931.423 77.2145 931.637 77.3125 931.85 77.3669 932.081 77.3745 932.316 77.3821 932.55 77.3428 932.784 77.2589 933.003L55.7839 989.673C55.6584 990.007 55.434 990.295 55.1406 990.499 54.8472 990.702 54.4988 990.811 54.1419 990.811 53.785 990.811 53.4366 990.702 53.1432 990.499 52.8498 990.295 52.6254 990.007 52.4999 989.673ZM41.251 1005.08H0V971.556L42.28 1001.9C42.5812 1002.11 42.8058 1002.42 42.9213 1002.77 43.0369 1003.13 43.0376 1003.51 42.9232 1003.86 42.8089 1004.21 42.5854 1004.52 42.2849 1004.74 41.9844 1004.96 41.6224 1005.08 41.251 1005.08ZM117.493 967.31C123.489 978.996 126.61 991.944 126.598 1005.08H66.8888C66.5173 1005.08 66.1553 1004.96 65.8551 1004.74 65.5549 1004.52 65.3318 1004.21 65.2181 1003.86 65.1043 1003.51 65.1057 1003.13 65.2221 1002.77 65.3385 1002.42 65.5639 1002.11 65.8658 1001.9L114.9 966.705C115.104 966.557 115.338 966.455 115.586 966.406 115.833 966.356 116.088 966.36 116.334 966.417 116.58 966.475 116.81 966.584 117.01 966.738 117.21 966.892 117.375 967.087 117.493 967.31ZM64.5562 989.052 84.5002 936.433C84.5885 936.198 84.7261 935.984 84.9038 935.806 85.0815 935.629 85.2951 935.491 85.5304 935.403 85.7657 935.314 86.0171 935.277 86.2679 935.294 86.5186 935.311 86.7629 935.381 86.9842 935.5 96.6159 940.865 104.938 948.299 111.351 957.267 111.621 957.648 111.729 958.121 111.651 958.582 111.574 959.042 111.317 959.453 110.937 959.725L67.2202 991.099C66.914 991.319 66.5453 991.434 66.1686 991.427 65.792 991.421 65.4273 991.294 65.1286 991.064 64.8298 990.835 64.6129 990.515 64.5098 990.153 64.4068 989.79 64.423 989.404 64.5562 989.052Z" fill="#A3E5EF"/><path d="M54.934 944.421C85.225 944.421 109.869 971.629 109.869 1005.07H0C0 971.633 24.644 944.421 54.934 944.421Z" fill="#09798C"/><path d="M54.9338 944.421C56.6098 944.421 58.2638 944.521 59.9008 944.681V1005.07H49.9678V944.68C51.6048 944.518 53.2588 944.421 54.9338 944.421Z" fill="#A3E5EF"/><path d="M143.681 616.716H0V548.447C37.2 492.407 53.42 448.626 53.42 448.626L53.43 448.636C53.43 448.636 81.8 524.836 149.2 604.866C150.083 605.918 150.648 607.199 150.828 608.56C151.008 609.921 150.796 611.305 150.216 612.55C149.636 613.794 148.714 614.848 147.556 615.586C146.398 616.324 145.054 616.716 143.681 616.716Z" fill="#2BBCB8"/><path d="M205.94 759.441H112.42V1005.08H205.94V759.441Z" fill="#C0F4F9"/><path d="M159.217 674.304C159.217 674.304 175.954 717.066 215.889 764.488C216.412 765.111 216.747 765.87 216.853 766.677C216.96 767.483 216.834 768.303 216.49 769.041C216.146 769.778 215.599 770.402 214.913 770.839C214.226 771.276 213.43 771.508 212.616 771.508H105.74C104.926 771.508 104.13 771.276 103.443 770.839C102.757 770.402 102.21 769.778 101.866 769.041C101.522 768.303 101.396 767.483 101.503 766.677C101.609 765.87 101.944 765.111 102.467 764.488C142.409 717.064 159.217 674.304 159.217 674.304Z" fill="#2BBCB8"/><path d="M159.18 664.215C155.7 664.215 152.299 665.247 149.405 667.18 146.512 669.114 144.257 671.862 142.925 675.076 141.594 678.291 141.245 681.829 141.924 685.242 142.603 688.655 144.279 691.79 146.739 694.25 149.2 696.711 152.335 698.386 155.748 699.065 159.16 699.744 162.698 699.396 165.913 698.064 169.128 696.732 171.876 694.477 173.809 691.584 175.742 688.691 176.774 685.289 176.774 681.809 176.772 677.144 174.918 672.669 171.619 669.37 168.32 666.071 163.846 664.217 159.18 664.215ZM53.4998 417.289C41.8728 417.289 32.4478 457.837 32.4478 469.463 32.4094 472.252 32.9254 475.02 33.966 477.608 35.0067 480.196 36.5511 482.551 38.5095 484.536 40.468 486.522 42.8016 488.099 45.3746 489.175 47.9476 490.251 50.7088 490.805 53.4978 490.805 56.2868 490.805 59.048 490.251 61.621 489.175 64.194 488.099 66.5276 486.522 68.486 484.536 70.4445 482.551 71.9889 480.196 73.0296 477.608 74.0702 475.02 74.5862 472.252 74.5478 469.463 74.5458 457.833 65.1198 417.289 53.4998 417.289Z" fill="#C0F4F9"/><path d="M143.472 906.84H179.36V847.625C179.36 843.042 177.539 838.647 174.298 835.406C171.058 832.165 166.662 830.345 162.079 830.344H160.753C156.17 830.345 151.775 832.165 148.534 835.406C145.293 838.647 143.472 843.042 143.472 847.625V906.84Z" fill="#A3E5EF"/><path d="M172.131 899.61V848.288C172.104 845.464 170.963 842.765 168.956 840.778C166.95 838.791 164.24 837.676 161.416 837.676C158.592 837.676 155.882 838.791 153.875 840.778C151.868 842.765 150.727 845.464 150.7 848.288V899.61H172.131Z" fill="#09798C"/><path d="M138.2 903.433C138.2 904.715 138.709 905.945 139.616 906.851 140.522 907.757 141.751 908.266 143.033 908.266H179.8C181.082 908.266 182.311 907.757 183.218 906.851 184.124 905.945 184.633 904.715 184.633 903.433V899.607H138.2V903.433ZM1600 690.841H1591.91V709.851H1572.19V690.841H1546.72V709.851H1526.59V690.841H1499.76V709.851H1479.63V690.841H1454.7L1458.46 731.166C1458.87 735.562 1460.91 739.645 1464.17 742.618 1467.44 745.591 1471.69 747.239 1476.11 747.239H1600V690.841ZM1557.12 416.191C1555.23 416.192 1553.42 416.942 1552.09 418.278 1550.75 419.613 1550 421.425 1550 423.313V516.78C1550 517.246 1550.18 517.692 1550.51 518.022 1550.84 518.351 1551.29 518.536 1551.76 518.536H1562.49C1562.95 518.536 1563.4 518.351 1563.73 518.022 1564.06 517.693 1564.24 517.246 1564.24 516.78V423.313C1564.24 421.425 1563.49 419.613 1562.16 418.277 1560.82 416.942 1559.01 416.191 1557.12 416.191Z" fill="#A3E5EF"/><path d="M1564.6 425.238L1472.11 449.149L1564.6 464.604V425.238Z" fill="#E3FEFF"/><path d="M1558.1 502.879C1553.94 502.879 1549.87 504.114 1546.4 506.427C1542.94 508.741 1540.24 512.028 1538.65 515.875C1537.06 519.722 1536.64 523.955 1537.45 528.038C1538.26 532.122 1540.27 535.873 1543.21 538.817C1546.16 541.762 1549.91 543.767 1553.99 544.579C1558.08 545.391 1562.31 544.974 1566.16 543.381C1570 541.788 1573.29 539.089 1575.6 535.627C1577.92 532.165 1579.15 528.095 1579.15 523.931C1579.15 518.348 1576.93 512.994 1572.99 509.046C1569.04 505.098 1563.68 502.88 1558.1 502.879Z" fill="#C0F4F9"/><path d="M1503.88 780.833H1483.08C1481.97 780.835 1480.9 781.28 1480.11 782.07 1479.32 782.86 1478.88 783.93 1478.88 785.046V794.424C1478.88 795.539 1479.32 796.609 1480.11 797.399 1480.9 798.189 1481.97 798.633 1483.08 798.635H1503.88C1504.99 798.633 1506.06 798.189 1506.85 797.399 1507.64 796.609 1508.08 795.539 1508.08 794.424V785.044C1508.08 783.928 1507.64 782.859 1506.85 782.069 1506.06 781.28 1504.99 780.835 1503.88 780.833ZM1535.23 812.889H1514.44C1513.32 812.891 1512.25 813.336 1511.46 814.126 1510.68 814.916 1510.23 815.986 1510.24 817.101V826.479C1510.23 827.595 1510.68 828.665 1511.46 829.455 1512.25 830.245 1513.32 830.689 1514.44 830.691H1535.23C1536.35 830.689 1537.41 830.245 1538.2 829.455 1538.99 828.665 1539.43 827.595 1539.43 826.479V817.101C1539.43 815.986 1538.99 814.916 1538.2 814.126 1537.41 813.336 1536.35 812.891 1535.23 812.889ZM1506 846.541H1485.2C1484.08 846.543 1483.02 846.987 1482.23 847.777 1481.44 848.567 1481 849.637 1481 850.753V860.133C1481 861.249 1481.44 862.319 1482.23 863.108 1483.02 863.898 1484.08 864.343 1485.2 864.344H1506C1507.12 864.343 1508.18 863.898 1508.97 863.108 1509.76 862.319 1510.2 861.249 1510.2 860.133V850.755C1510.2 849.639 1509.76 848.568 1508.97 847.778 1508.18 846.988 1507.12 846.543 1506 846.541ZM1584.38 761.257H1564.09C1563.51 761.258 1562.93 761.374 1562.39 761.598 1561.85 761.823 1561.35 762.152 1560.94 762.566 1560.53 762.981 1560.2 763.473 1559.97 764.014 1559.75 764.556 1559.64 765.136 1559.64 765.721V774.594C1559.64 775.18 1559.75 775.76 1559.97 776.302 1560.2 776.843 1560.53 777.335 1560.94 777.75 1561.35 778.164 1561.85 778.494 1562.39 778.718 1562.93 778.943 1563.51 779.059 1564.09 779.059H1584.38C1584.97 779.059 1585.55 778.943 1586.09 778.718 1586.63 778.494 1587.12 778.164 1587.54 777.75 1587.95 777.335 1588.28 776.843 1588.5 776.302 1588.72 775.76 1588.84 775.18 1588.84 774.594V765.721C1588.84 765.136 1588.72 764.556 1588.5 764.014 1588.28 763.473 1587.95 762.981 1587.54 762.566 1587.12 762.152 1586.63 761.823 1586.09 761.598 1585.55 761.374 1584.97 761.258 1584.38 761.257Z" fill="#B2F0F7"/><path d="M1556.29 868.723H1592.18V809.509C1592.18 804.925 1590.36 800.53 1587.12 797.289C1583.88 794.049 1579.48 792.228 1574.9 792.228H1573.57C1568.99 792.228 1564.6 794.049 1561.36 797.289C1558.12 800.53 1556.29 804.925 1556.29 809.509V868.723Z" fill="#A3E5EF"/><path d="M1584.95 861.494V810.172C1584.97 808.756 1584.7 807.351 1584.17 806.039C1583.63 804.727 1582.85 803.533 1581.85 802.527C1580.85 801.521 1579.67 800.723 1578.36 800.178C1577.06 799.633 1575.65 799.352 1574.24 799.352C1572.82 799.352 1571.42 799.633 1570.11 800.178C1568.81 800.723 1567.62 801.521 1566.62 802.527C1565.63 803.533 1564.84 804.727 1564.31 806.039C1563.78 807.351 1563.51 808.756 1563.52 810.172V861.494H1584.95Z" fill="#09798C"/><path d="M1551.02 865.319C1551.02 865.953 1551.15 866.582 1551.39 867.168 1551.63 867.755 1551.99 868.288 1552.44 868.737 1552.89 869.186 1553.42 869.542 1554.01 869.785 1554.59 870.028 1555.22 870.153 1555.86 870.153H1592.62C1593.25 870.153 1593.88 870.028 1594.47 869.785 1595.06 869.542 1595.59 869.186 1596.04 868.737 1596.49 868.288 1596.84 867.755 1597.09 867.168 1597.33 866.582 1597.45 865.953 1597.45 865.319V861.494H1551.02V865.319ZM1048.28 1257.56V1237.95H1022.81V1256.96H1002.68V1237.95H975.849V1256.96H956.128V1237.95H930.657V1256.96H910.53V1237.95H883.694V1256.96H863.567V1237.95H838.637V1360.53H1062.67V1257.56H1048.28Z" fill="#A3E5EF"/><path d="M1232.46 1257.56V1237.95H1206.99V1256.96H1186.86V1237.95H1160.02V1256.96H1140.3V1237.95H1114.83V1256.96H1094.7V1237.95H1067.87V1256.96H1047.74V1237.95H1022.81V1360.53H1246.85V1257.56H1232.46Z" fill="#A3E5EF"/><path d="M1416.63 1257.56V1237.95H1391.16V1256.96H1371.04V1237.95H1344.2V1256.96H1324.48V1237.95H1299.01V1256.96H1278.88V1237.95H1252.05V1256.96H1231.92V1237.95H1206.99V1360.53H1431.02V1257.56H1416.63Z" fill="#A3E5EF"/><path d="M1600 1237.95H1575.34V1256.96H1555.21V1237.95H1528.37V1256.96H1508.65V1237.95H1483.18V1256.96H1463.06V1237.95H1436.22V1256.96H1416.09V1237.95H1391.16V1360.53H1600V1237.95Z" fill="#A3E5EF"/><path d="M1462.97 1180.15H1297.34V1360.53H1462.97V1180.15Z" fill="#C0F4F9"/><path d="M1370.97 1095.01C1370.97 1095.01 1387.7 1137.77 1427.64 1185.19C1428.16 1185.82 1428.5 1186.58 1428.6 1187.38C1428.71 1188.19 1428.58 1189.01 1428.24 1189.75C1427.9 1190.48 1427.35 1191.11 1426.66 1191.55C1425.98 1191.98 1425.18 1192.21 1424.37 1192.21H1317.49C1316.68 1192.21 1315.88 1191.98 1315.19 1191.55C1314.51 1191.11 1313.96 1190.48 1313.62 1189.75C1313.27 1189.01 1313.15 1188.19 1313.25 1187.38C1313.36 1186.58 1313.69 1185.82 1314.22 1185.19C1354.16 1137.77 1370.97 1095.01 1370.97 1095.01Z" fill="#0FA3AA"/><path d="M1300.19 1317.87H1460.12C1462.95 1317.87 1465.67 1319 1467.68 1321C1469.68 1323.01 1470.81 1325.73 1470.81 1328.56V1360.25H1289.5V1328.56C1289.5 1327.16 1289.78 1325.77 1290.31 1324.47C1290.85 1323.17 1291.64 1322 1292.63 1321C1293.62 1320.01 1294.8 1319.22 1296.1 1318.69C1297.39 1318.15 1298.78 1317.87 1300.19 1317.87Z" fill="#B2F0F7"/><path d="M1380.09 1037.48H1380.08C1380.08 1037.48 1351.84 1113.69 1284.44 1193.72C1283.56 1194.77 1283 1196.05 1282.82 1197.41C1282.64 1198.77 1282.85 1200.16 1283.43 1201.4C1284.01 1202.64 1284.93 1203.7 1286.09 1204.44C1287.25 1205.17 1288.6 1205.56 1289.97 1205.56H1470.34C1471.71 1205.56 1473.06 1205.17 1474.21 1204.44C1475.37 1203.7 1476.3 1202.64 1476.88 1201.4C1477.46 1200.16 1477.67 1198.77 1477.49 1197.41C1477.31 1196.05 1476.74 1194.77 1475.86 1193.72C1408.46 1113.69 1380.09 1037.48 1380.09 1037.48Z" fill="#2BBCB8"/><path d="M1318.74 1245.49H1297.94C1296.82 1245.49 1295.75 1245.93 1294.97 1246.72 1294.18 1247.51 1293.74 1248.58 1293.74 1249.7V1259.08C1293.74 1260.19 1294.18 1261.26 1294.97 1262.05 1295.75 1262.84 1296.82 1263.29 1297.94 1263.29H1318.74C1319.85 1263.29 1320.92 1262.84 1321.71 1262.05 1322.5 1261.26 1322.94 1260.19 1322.94 1259.08V1249.7C1322.94 1248.58 1322.5 1247.51 1321.71 1246.72 1320.92 1245.93 1319.85 1245.49 1318.74 1245.49ZM1461.34 1266.81H1440.54C1439.42 1266.82 1438.35 1267.26 1437.56 1268.05 1436.78 1268.84 1436.34 1269.91 1436.34 1271.03V1280.4C1436.34 1281.52 1436.78 1282.59 1437.56 1283.38 1438.35 1284.17 1439.42 1284.61 1440.54 1284.62H1461.34C1462.45 1284.61 1463.52 1284.17 1464.31 1283.38 1465.09 1282.59 1465.54 1281.52 1465.54 1280.4V1271.03C1465.54 1269.91 1465.09 1268.84 1464.31 1268.05 1463.52 1267.26 1462.45 1266.82 1461.34 1266.81ZM1320.86 1286.44H1300.06C1298.95 1286.45 1297.88 1286.89 1297.09 1287.68 1296.3 1288.47 1295.86 1289.54 1295.86 1290.66V1300.04C1295.86 1301.15 1296.3 1302.22 1297.09 1303.01 1297.88 1303.8 1298.95 1304.24 1300.06 1304.25H1320.86C1321.97 1304.24 1323.04 1303.8 1323.83 1303.01 1324.62 1302.22 1325.06 1301.15 1325.06 1300.04V1290.66C1325.06 1289.54 1324.62 1288.47 1323.83 1287.68 1323.04 1286.89 1321.97 1286.45 1320.86 1286.44ZM1442.44 1243.71H1422.15C1421.57 1243.71 1420.99 1243.83 1420.45 1244.05 1419.9 1244.28 1419.41 1244.61 1419 1245.02 1418.59 1245.44 1418.26 1245.93 1418.03 1246.47 1417.81 1247.01 1417.7 1247.59 1417.7 1248.18V1257.05C1417.7 1257.64 1417.81 1258.22 1418.03 1258.76 1418.26 1259.3 1418.59 1259.79 1419 1260.21 1419.41 1260.62 1419.9 1260.95 1420.45 1261.17 1420.99 1261.4 1421.57 1261.51 1422.15 1261.52H1442.44C1443.03 1261.51 1443.61 1261.4 1444.15 1261.17 1444.69 1260.95 1445.18 1260.62 1445.59 1260.21 1446.01 1259.79 1446.34 1259.3 1446.56 1258.76 1446.78 1258.22 1446.9 1257.64 1446.9 1257.05V1248.18C1446.9 1247.59 1446.78 1247.01 1446.56 1246.47 1446.34 1245.93 1446.01 1245.44 1445.59 1245.02 1445.18 1244.61 1444.69 1244.28 1444.15 1244.05 1443.61 1243.83 1443.03 1243.71 1442.44 1243.71Z" fill="#B2F0F7"/><path d="M1362.21 1300.82H1398.1V1241.61C1398.1 1237.02 1396.28 1232.63 1393.04 1229.39C1389.8 1226.15 1385.4 1224.32 1380.82 1224.32H1379.49C1374.91 1224.32 1370.51 1226.15 1367.27 1229.39C1364.03 1232.63 1362.21 1237.02 1362.21 1241.61L1362.21 1300.82Z" fill="#A3E5EF"/><path d="M1390.87 1293.59V1242.27C1390.87 1239.43 1389.74 1236.7 1387.73 1234.69C1385.72 1232.68 1382.99 1231.55 1380.15 1231.55C1377.31 1231.55 1374.59 1232.68 1372.58 1234.69C1370.57 1236.7 1369.44 1239.43 1369.44 1242.27V1293.59H1390.87Z" fill="#09798C"/><path d="M1356.94 1297.42C1356.94 1298.7 1357.45 1299.93 1358.35 1300.83C1359.26 1301.74 1360.49 1302.25 1361.77 1302.25H1398.54C1399.17 1302.25 1399.8 1302.12 1400.39 1301.88C1400.97 1301.64 1401.5 1301.28 1401.95 1300.83C1402.4 1300.38 1402.76 1299.85 1403 1299.27C1403.24 1298.68 1403.37 1298.05 1403.37 1297.42V1293.59H1356.94V1297.42Z" fill="#A3E5EF"/><path d="M1380.15 1023.24C1376.67 1023.24 1373.27 1024.27 1370.38 1026.21C1367.49 1028.14 1365.23 1030.89 1363.9 1034.1C1362.57 1037.32 1362.22 1040.86 1362.9 1044.27C1363.58 1047.68 1365.25 1050.82 1367.71 1053.28C1370.17 1055.74 1373.31 1057.41 1376.72 1058.09C1380.13 1058.77 1383.67 1058.42 1386.89 1057.09C1390.1 1055.76 1392.85 1053.5 1394.78 1050.61C1396.72 1047.72 1397.75 1044.32 1397.75 1040.84C1397.75 1036.17 1395.89 1031.7 1392.59 1028.4C1389.3 1025.1 1384.82 1023.24 1380.15 1023.24Z" fill="#C0F4F9"/><path d="M1600 985.817V1005.09H1446.92C1448.68 998.825 1452.14 993.177 1456.93 988.769C1461.71 984.362 1467.62 981.369 1474.01 980.125C1480.39 978.881 1486.99 979.434 1493.08 981.722C1499.17 984.011 1504.5 987.945 1508.49 993.086C1511.26 990.18 1514.62 987.894 1518.35 986.378C1522.07 984.862 1526.07 984.151 1530.09 984.292C1534.11 984.433 1538.05 985.422 1541.66 987.194C1545.27 988.967 1548.46 991.483 1551.03 994.577C1553.66 990.778 1557.02 987.537 1560.91 985.04C1564.8 982.542 1569.14 980.838 1573.69 980.024C1578.24 979.21 1582.91 979.302 1587.42 980.296C1591.93 981.291 1596.21 983.167 1599.99 985.817H1600Z" fill="#3CC6BF"/><path d="M809.451 1270.39C782.496 1270.41 756.283 1279.22 734.792 1295.49C713.3 1311.76 697.706 1334.59 690.376 1360.53H928.525C921.195 1334.59 905.601 1311.76 884.11 1295.49C862.619 1279.22 836.405 1270.41 809.451 1270.39Z" fill="#1EACAF"/><path d="M924.889 1287.73C903.12 1287.74 881.949 1294.86 864.592 1308C847.235 1321.14 834.641 1339.58 828.722 1360.53H1021.06C1015.14 1339.58 1002.54 1321.14 985.186 1308C967.829 1294.86 946.658 1287.74 924.889 1287.73Z" fill="#2BBCB8"/><path d="M845.266 1360.53C845.266 1360.53 811.614 1272.51 727.459 1315.24C673.591 1267.73 600.123 1295.13 591.416 1336.4C543.801 1327.73 512.459 1360.53 512.459 1360.53H845.266Z" fill="#3CC6BF"/><path d="M721.724 1326.12C722.462 1324.32 723.885 1322.89 725.679 1322.14 727.473 1321.39 729.492 1321.38 731.291 1322.12 733.09 1322.86 734.522 1324.28 735.272 1326.07 736.023 1327.87 736.029 1329.89 735.291 1331.68 733.754 1335.43 724.916 1348.32 721.169 1346.78 717.422 1345.25 720.187 1329.86 721.724 1326.12ZM677.494 1295.38C677.322 1293.45 677.915 1291.54 679.145 1290.05 680.374 1288.57 682.141 1287.62 684.062 1287.43 685.983 1287.23 687.902 1287.81 689.404 1289.02 690.906 1290.23 691.87 1291.99 692.085 1293.91 692.492 1297.93 690.759 1313.47 686.73 1313.87 682.701 1314.28 677.9 1299.41 677.494 1295.38ZM619.119 1329.86C618.651 1327.98 618.952 1325.98 619.956 1324.32 620.96 1322.65 622.584 1321.45 624.472 1320.98 626.359 1320.52 628.355 1320.82 630.021 1321.82 631.686 1322.82 632.885 1324.45 633.353 1326.34 634.327 1330.27 634.818 1345.89 630.887 1346.86 626.956 1347.84 620.093 1333.79 619.119 1329.86ZM781.493 1324.88C781.955 1324.03 782.58 1323.29 783.33 1322.68 784.08 1322.08 784.942 1321.63 785.866 1321.36 786.79 1321.09 787.759 1321 788.716 1321.11 789.673 1321.21 790.601 1321.5 791.446 1321.97 792.29 1322.43 793.036 1323.05 793.639 1323.8 794.242 1324.55 794.692 1325.42 794.963 1326.34 795.233 1327.26 795.319 1328.23 795.215 1329.19 795.111 1330.15 794.819 1331.07 794.357 1331.92 792.412 1335.47 782.195 1347.3 778.642 1345.35 775.089 1343.41 779.549 1328.43 781.493 1324.88ZM579.753 1337.56C578.75 1335.89 578.45 1333.9 578.919 1332.01 579.388 1330.12 580.587 1328.5 582.254 1327.5 583.92 1326.49 585.916 1326.19 587.803 1326.66 589.69 1327.13 591.314 1328.33 592.317 1330 594.405 1333.47 599.474 1348.25 596.005 1350.34 592.536 1352.43 581.841 1341.03 579.753 1337.56Z" fill="#2BBCB8"/><path d="M994.721 1360.53C994.721 1360.53 991.079 1343 994.592 1341.29C998.375 1339.46 1006.27 1353.62 1006.05 1355.56C1006.81 1346.05 1010.85 1334.22 1014.7 1334.48C1021.07 1334.92 1023.13 1356.86 1023.13 1356.86C1026.05 1352.64 1031.99 1348.64 1033.5 1350.59C1035.48 1353.13 1031.25 1360.53 1031.25 1360.53H994.721Z" fill="#5AD1CB"/><path d="M1301.92 247.412C1360.4 247.412 1407.81 200.003 1407.81 141.52C1407.81 83.0379 1360.4 35.6284 1301.92 35.6284C1243.43 35.6284 1196.02 83.0379 1196.02 141.52C1196.02 200.003 1243.43 247.412 1301.92 247.412Z" fill="#3CC6BF"/><path d="M1296.98 316.933H1306.85V115.416C1306.85 114.108 1306.33 112.852 1305.41 111.927C1304.48 111.001 1303.22 110.481 1301.92 110.481C1301.27 110.481 1300.63 110.609 1300.03 110.857C1299.43 111.105 1298.88 111.468 1298.43 111.927C1297.97 112.385 1297.6 112.929 1297.36 113.528C1297.11 114.127 1296.98 114.768 1296.98 115.416V316.933Z" fill="#24BCB1"/><path d="M1304.66 160.966 1276.71 129.833C1275.84 128.86 1274.61 128.273 1273.3 128.202 1272 128.132 1270.72 128.583 1269.74 129.457 1268.77 130.332 1268.18 131.558 1268.11 132.865 1268.04 134.172 1268.49 135.453 1269.37 136.427L1300.4 170.993 1304.66 160.966ZM1304.66 196.474 1276.71 165.339C1275.84 164.365 1274.61 163.779 1273.3 163.708 1272 163.638 1270.72 164.09 1269.74 164.964 1268.77 165.839 1268.18 167.064 1268.11 168.371 1268.04 169.678 1268.49 170.959 1269.37 171.933L1300.4 206.5 1304.66 196.474Z" fill="#24BCB1"/><path d="M245.527 1220.26C297.899 1220.26 340.354 1177.81 340.354 1125.44C340.354 1073.06 297.899 1030.61 245.527 1030.61C193.156 1030.61 150.7 1073.06 150.7 1125.44C150.7 1177.81 193.156 1220.26 245.527 1220.26Z" fill="#3CC6BF"/><path d="M250.462 1286.39H240.592V1084.88C240.592 1084.23 240.72 1083.59 240.968 1082.99C241.216 1082.39 241.579 1081.85 242.037 1081.39C242.496 1080.93 243.04 1080.57 243.639 1080.32C244.237 1080.07 244.879 1079.94 245.527 1079.94C246.836 1079.94 248.091 1080.46 249.017 1081.39C249.942 1082.31 250.462 1083.57 250.462 1084.88V1286.39Z" fill="#24BCB1"/><path d="M242.778 1119.05 270.731 1087.92C271.606 1086.95 272.831 1086.36 274.138 1086.29 275.445 1086.22 276.726 1086.67 277.7 1087.54 278.674 1088.42 279.261 1089.64 279.331 1090.95 279.402 1092.26 278.95 1093.54 278.076 1094.51L247.042 1129.08 242.778 1119.05ZM242.778 1154.56 270.731 1123.43C271.606 1122.45 272.831 1121.87 274.138 1121.8 275.445 1121.73 276.726 1122.18 277.7 1123.05 278.674 1123.93 279.261 1125.15 279.331 1126.46 279.402 1127.77 278.95 1129.05 278.076 1130.02L247.042 1164.59 242.778 1154.56ZM248.562 1187.33 220.609 1156.2C219.735 1155.22 218.509 1154.64 217.203 1154.57 215.896 1154.5 214.614 1154.95 213.64 1155.82 212.667 1156.7 212.08 1157.92 212.01 1159.23 211.939 1160.54 212.391 1161.82 213.265 1162.79L244.299 1197.36 248.562 1187.33Z" fill="#24BCB1"/><path d="M313.856 1248.5C344.681 1248.5 369.67 1223.51 369.67 1192.68C369.67 1161.86 344.681 1136.87 313.856 1136.87C283.031 1136.87 258.042 1161.86 258.042 1192.68C258.042 1223.51 283.031 1248.5 313.856 1248.5Z" fill="#2BBCB8"/><path d="M317.662 1286.39H307.791V1180.89C307.791 1179.59 308.311 1178.33 309.237 1177.4C310.162 1176.48 311.417 1175.96 312.726 1175.96C314.035 1175.96 315.29 1176.48 316.216 1177.4C317.142 1178.33 317.662 1179.58 317.662 1180.89V1286.39Z" fill="#1EACAF"/><path d="M310.588 1225.46L338.541 1194.32C339.415 1193.35 340.641 1192.76 341.948 1192.69C343.255 1192.62 344.536 1193.07 345.51 1193.95C346.484 1194.82 347.071 1196.05 347.141 1197.35C347.212 1198.66 346.76 1199.94 345.886 1200.91L314.852 1235.48L310.588 1225.46Z" fill="#1EACAF"/><path d="M311.509 1265.34C304.525 1265.34 297.644 1267.03 291.456 1270.27 285.268 1273.51 279.958 1278.2 275.98 1283.94 272.819 1280.13 268.887 1277.03 264.442 1274.84 259.998 1272.66 255.141 1271.44 250.192 1271.27 245.243 1271.09 240.313 1271.97 235.727 1273.83 231.14 1275.7 227 1278.52 223.58 1282.1 218.674 1275.77 212.107 1270.92 204.608 1268.1 197.11 1265.28 188.977 1264.6 181.114 1266.13 173.251 1267.67 165.968 1271.35 160.078 1276.78 154.187 1282.21 149.919 1289.17 147.751 1296.88H353.173C350.608 1287.8 345.152 1279.81 337.632 1274.12 330.112 1268.43 320.94 1265.34 311.509 1265.34ZM1316.19 287.646C1308.62 287.645 1301.16 289.478 1294.46 292.99 1287.75 296.501 1281.99 301.586 1277.68 307.808 1274.26 303.678 1269.99 300.318 1265.18 297.952 1260.36 295.585 1255.1 294.264 1249.73 294.076 1244.37 293.888 1239.03 294.837 1234.06 296.86 1229.09 298.884 1224.6 301.936 1220.89 305.816 1215.57 298.953 1208.46 293.701 1200.33 290.646 1192.2 287.59 1183.39 286.852 1174.87 288.513 1166.34 290.173 1158.45 294.168 1152.07 300.052 1145.68 305.935 1141.06 313.476 1138.71 321.833H1361.35C1358.57 311.996 1352.65 303.335 1344.5 297.164 1336.35 290.994 1326.41 287.652 1316.19 287.646Z" fill="#3CC6BF"/><path d="M228.073 70.5981C250.653 70.6085 272.628 77.901 290.734 91.3927C308.841 104.884 322.113 123.856 328.58 145.49H127.893C134.33 123.901 147.549 104.959 165.593 91.4698C183.636 77.9808 205.545 70.6623 228.073 70.5981Z" fill="#2BBCB8"/><path d="M205.055 145.492H0.00585938V72.4115C17.1789 59.2354 37.3784 50.57 58.7608 47.2061C80.1433 43.8422 102.028 45.887 122.417 53.1537C142.806 60.4205 161.051 72.6778 175.486 88.8071C189.921 104.936 200.086 124.424 205.055 145.492Z" fill="#3CC6BF"/><path d="M74.1481 128.075L73.4971 126.775C70.0311 118.975 70.8971 111.393 75.8811 109.44C80.8651 107.487 88.4491 112.69 91.2641 119.623C91.6991 120.489 91.9151 121.576 92.3501 122.442C92.5661 114.208 95.3811 109.442 100.15 109.008C104.919 108.574 107.95 113.126 109.897 120.274C110.015 119.761 110.161 119.254 110.333 118.756C114.233 105.973 120.301 102.722 125.716 104.456C131.131 106.19 134.167 112.256 130.268 125.042C130.15 125.554 130.005 126.059 129.833 126.555C135.467 121.791 140.017 122.007 143.05 124.607C146.95 127.857 147.383 133.707 139.8 142.374C138.321 144.07 136.729 145.663 135.034 147.142H71.1171C69.4946 145.97 67.9721 144.666 66.5651 143.242C58.9811 135.874 57.6831 130.028 60.9341 126.777C63.5341 124.178 68.7331 124.178 74.1481 128.075Z" fill="#5AD1CB"/><path d="M1044.53 246.393 1043.88 245.093C1040.42 237.293 1041.28 229.711 1046.27 227.758 1051.25 225.805 1058.83 231.008 1061.65 237.941 1062.09 238.808 1062.3 239.894 1062.74 240.761 1062.95 232.526 1065.77 227.761 1070.54 227.327 1075.31 226.893 1078.34 231.444 1080.28 238.592 1080.4 238.079 1080.55 237.572 1080.72 237.074 1084.62 224.291 1090.69 221.041 1096.1 222.774 1101.52 224.507 1104.55 230.574 1100.66 243.36 1100.54 243.872 1100.39 244.378 1100.22 244.874 1105.85 240.11 1110.4 240.325 1113.44 242.925 1117.34 246.176 1117.77 252.025 1110.19 260.692 1108.71 262.388 1107.12 263.981 1105.42 265.46H1041.5C1039.88 264.289 1038.35 262.984 1036.95 261.56 1029.36 254.192 1028.07 248.346 1031.32 245.095 1033.92 242.496 1039.12 242.496 1044.53 246.393ZM476.927 1194.7 476.276 1193.4C472.809 1185.6 473.676 1178.02 478.66 1176.07 483.644 1174.11 491.227 1179.32 494.042 1186.25 494.478 1187.12 494.693 1188.2 495.129 1189.07 495.344 1180.83 498.16 1176.07 502.929 1175.63 507.698 1175.2 510.729 1179.75 512.677 1186.9 512.795 1186.39 512.94 1185.88 513.112 1185.38 517.012 1172.6 523.08 1169.35 528.495 1171.08 533.91 1172.82 536.946 1178.88 533.048 1191.67 532.93 1192.18 532.784 1192.69 532.612 1193.18 538.246 1188.42 542.796 1188.63 545.829 1191.23 549.729 1194.48 550.163 1200.33 542.58 1209 541.101 1210.7 539.508 1212.29 537.813 1213.77H473.9C472.277 1212.6 470.754 1211.29 469.347 1209.87 461.763 1202.5 460.466 1196.65 463.716 1193.4 466.312 1190.8 471.512 1190.8 476.927 1194.7ZM80.0148 986.009 79.3638 984.709C75.8978 976.909 76.7638 969.326 81.7488 967.373 86.7338 965.42 94.3158 970.624 97.1308 977.556 97.5668 978.423 97.7818 979.51 98.2178 980.376 98.4328 972.141 101.249 967.376 106.018 966.942 110.787 966.508 113.818 971.059 115.766 978.207 115.884 977.694 116.029 977.188 116.201 976.69 120.101 963.907 126.169 960.656 131.584 962.39 136.999 964.124 140.035 970.19 136.137 982.977 136.019 983.489 135.873 983.994 135.701 984.49 141.335 979.726 145.885 979.942 148.918 982.541 152.818 985.792 153.252 991.641 145.668 1000.31 144.189 1002 142.597 1003.6 140.902 1005.08H76.9848C75.3623 1003.91 73.8394 1002.6 72.4318 1001.18 64.8478 993.809 63.5508 987.963 66.8008 984.712 69.3998 982.111 74.5998 982.111 80.0148 986.009Z" fill="#3CC6BF"/><path d="M1442.42 1341.06L1441.77 1339.76C1438.31 1331.96 1439.17 1324.38 1444.16 1322.43C1449.14 1320.47 1456.72 1325.68 1459.54 1332.61C1459.98 1333.48 1460.19 1334.56 1460.63 1335.43C1460.84 1327.19 1463.66 1322.43 1468.43 1321.99C1473.2 1321.56 1476.23 1326.11 1478.17 1333.26C1478.29 1332.75 1478.44 1332.24 1478.61 1331.74C1482.51 1318.96 1488.58 1315.71 1493.99 1317.44C1499.41 1319.18 1502.44 1325.24 1498.55 1338.03C1498.43 1338.54 1498.28 1339.05 1498.11 1339.54C1503.74 1334.78 1508.29 1334.99 1511.33 1337.59C1515.23 1340.84 1515.66 1346.69 1508.08 1355.36C1506.6 1357.06 1505.01 1358.65 1503.31 1360.13H1439.39C1437.77 1358.96 1436.25 1357.65 1434.84 1356.23C1427.26 1348.86 1425.96 1343.02 1429.21 1339.76C1431.81 1337.16 1437.01 1337.16 1442.42 1341.06Z" fill="#5AD1CB"/><path d="M1479.7 85.1951 1479.05 83.8951C1475.58 76.0951 1476.45 68.5131 1481.43 66.5601 1486.42 64.6071 1494 69.8101 1496.82 76.7431 1497.25 77.6101 1497.47 78.6961 1497.9 79.5631 1498.12 71.3281 1500.93 66.5631 1505.7 66.1291 1510.47 65.6951 1513.5 70.2461 1515.45 77.3941 1515.57 76.8807 1515.71 76.374 1515.88 75.8761 1519.78 63.0931 1525.85 59.8431 1531.27 61.5761 1536.68 63.3091 1539.72 69.3761 1535.82 82.1621 1535.7 82.674 1535.56 83.1794 1535.38 83.6761 1541.02 78.9121 1545.57 79.1271 1548.6 81.7271 1552.5 84.9781 1552.93 90.8271 1545.35 99.4941 1543.87 101.19 1542.28 102.783 1540.59 104.262H1476.67C1475.05 103.09 1473.52 101.786 1472.12 100.362 1464.53 92.9941 1463.23 87.1481 1466.49 83.8971 1469.08 81.2981 1474.28 81.2981 1479.7 85.1951ZM311.971 145.811 311.32 144.511C307.854 136.711 308.72 129.129 313.704 127.176 318.688 125.223 326.272 130.426 329.087 137.359 329.522 138.225 329.738 139.312 330.173 140.178 330.389 131.944 333.204 127.178 337.973 126.744 342.742 126.31 345.773 130.862 347.721 138.01 347.839 137.497 347.985 136.99 348.157 136.492 352.057 123.709 358.124 120.458 363.539 122.192 368.954 123.926 371.99 129.992 368.092 142.778 367.974 143.29 367.828 143.795 367.657 144.291 373.291 139.527 377.84 139.743 380.874 142.343 384.774 145.593 385.207 151.443 377.624 160.11 376.145 161.806 374.552 163.399 372.857 164.878H308.94C307.317 163.706 305.794 162.402 304.387 160.978 296.804 153.61 295.506 147.764 298.757 144.513 301.357 141.914 306.556 141.914 311.971 145.811Z" fill="#3CC6BF"/><path d="M211.6 168.983C234.18 168.994 256.155 176.286 274.261 189.778C292.368 203.27 305.64 222.242 312.107 243.876H111.42C117.857 222.287 131.076 203.345 149.119 189.856C167.163 176.367 189.072 169.048 211.6 168.983Z" fill="#2BBCB8"/><path d="M214.363 225.774L213.712 224.474C210.245 216.674 211.112 209.092 216.096 207.139C221.08 205.186 228.663 210.389 231.479 217.322C231.914 218.189 232.13 219.275 232.565 220.142C232.781 211.907 235.596 207.142 240.365 206.708C245.134 206.274 248.165 210.825 250.113 217.973C250.231 217.46 250.377 216.953 250.548 216.455C254.448 203.672 260.516 200.422 265.931 202.155C271.346 203.888 274.382 209.955 270.484 222.741C270.366 223.253 270.22 223.759 270.048 224.255C275.682 219.491 280.232 219.706 283.266 222.306C287.166 225.557 287.599 231.406 280.016 240.073C278.537 241.769 276.944 243.362 275.249 244.841H211.332C209.709 243.669 208.186 242.365 206.779 240.941C199.196 233.573 197.898 227.727 201.149 224.476C203.748 221.877 208.948 221.877 214.363 225.774Z" fill="#5AD1CB"/><path d="M781.642 38.1173L780.991 36.8173C777.525 29.0173 778.391 21.4343 783.375 19.4813C788.359 17.5283 795.943 22.7323 798.758 29.6643C799.194 30.5313 799.409 31.6173 799.845 32.4843C800.06 24.2493 802.875 19.4843 807.645 19.0503C812.415 18.6163 815.445 23.1673 817.393 30.3153C817.511 29.8024 817.657 29.296 817.828 28.7983C821.728 16.0153 827.796 12.7643 833.211 14.4983C838.626 16.2323 841.662 22.2983 837.764 35.0853C837.646 35.5971 837.5 36.1021 837.328 36.5983C842.962 31.8343 847.512 32.0493 850.545 34.6493C854.445 37.9003 854.879 43.7493 847.295 52.4163C845.816 54.112 844.224 55.705 842.529 57.1843H778.612C776.989 56.0123 775.466 54.7079 774.059 53.2843C766.475 45.9163 765.178 40.0693 768.428 36.8193C771.028 34.2203 776.227 34.2203 781.642 38.1173Z" fill="#3CC6BF"/><path d="M12.6249 585.016C12.6198 588.653 11.3623 592.176 9.06396 594.993C6.76562 597.811 3.56679 599.751 0.00585938 600.486V595.333C2.21579 594.657 4.15045 593.289 5.52547 591.432C6.90049 589.574 7.64335 587.325 7.64486 585.013C7.64486 584.353 7.9072 583.72 8.37416 583.253C8.84113 582.786 9.47447 582.523 10.1349 582.523C10.7952 582.523 11.4286 582.786 11.8956 583.253C12.3625 583.72 12.6249 584.353 12.6249 585.013V585.016Z" fill="#24AFB2"/><path d="M23.4301 600.803C19.2444 600.798 15.2316 599.133 12.2718 596.174C9.31211 593.214 7.64712 589.201 7.64209 585.015C7.64209 584.354 7.90474 583.72 8.37227 583.253C8.8398 582.785 9.47391 582.522 10.1351 582.522C10.7963 582.522 11.4304 582.785 11.8979 583.253C12.3654 583.72 12.6281 584.354 12.6281 585.015C12.6281 587.88 13.7659 590.627 15.7913 592.652C17.8167 594.678 20.5638 595.815 23.4281 595.815C26.2924 595.815 29.0394 594.678 31.0648 592.652C33.0902 590.627 34.2281 587.88 34.2281 585.015C34.2281 584.354 34.4907 583.72 34.9583 583.253C35.4258 582.785 36.0599 582.522 36.7211 582.522C37.3823 582.522 38.0164 582.785 38.4839 583.253C38.9514 583.72 39.2141 584.354 39.2141 585.015C39.2091 589.2 37.5446 593.213 34.5858 596.172C31.6269 599.132 27.6151 600.797 23.4301 600.803Z" fill="#24AFB2"/><path d="M37.2592 587.344C33.0733 587.34 29.0602 585.675 26.1004 582.715C23.1405 579.755 21.4757 575.742 21.4712 571.556C21.4712 570.895 21.7338 570.261 22.2014 569.794C22.6689 569.326 23.303 569.063 23.9642 569.063C24.6254 569.063 25.2595 569.326 25.727 569.794C26.1945 570.261 26.4572 570.895 26.4572 571.556C26.4572 574.421 27.595 577.168 29.6204 579.193C31.6458 581.219 34.3929 582.356 37.2572 582.356C40.1215 582.356 42.8686 581.219 44.8939 579.193C46.9193 577.168 48.0572 574.421 48.0572 571.556C48.0572 570.895 48.3198 570.261 48.7874 569.794C49.2549 569.326 49.889 569.063 50.5502 569.063C51.2114 569.063 51.8455 569.326 52.313 569.794C52.7805 570.261 53.0432 570.895 53.0432 571.556C53.0384 575.742 51.3741 579.754 48.4151 582.714C45.4562 585.673 41.4443 587.339 37.2592 587.344Z" fill="#24AFB2"/><path d="M63.851 587.344C59.6651 587.34 55.6518 585.675 52.6918 582.715 49.7318 579.756 48.0668 575.742 48.062 571.556 48.062 570.895 48.3247 570.261 48.7922 569.794 49.2597 569.326 49.8938 569.063 50.555 569.063 51.2162 569.063 51.8503 569.326 52.3178 569.794 52.7854 570.261 53.048 570.895 53.048 571.556 53.048 574.422 54.1862 577.169 56.2121 579.195 58.2381 581.221 60.9859 582.359 63.851 582.359 66.7161 582.359 69.4639 581.221 71.4899 579.195 73.5158 577.169 74.654 574.422 74.654 571.556 74.654 570.895 74.9167 570.261 75.3842 569.794 75.8517 569.326 76.4858 569.063 77.147 569.063 77.8082 569.063 78.4423 569.326 78.9098 569.794 79.3774 570.261 79.64 570.895 79.64 571.556 79.6352 575.742 77.9702 579.756 75.0102 582.715 72.0502 585.675 68.037 587.34 63.851 587.344ZM66.3442 539.344C62.1583 539.339 58.1452 537.674 55.1853 534.714 52.2253 531.754 50.5602 527.741 50.5552 523.555 50.5552 522.894 50.8178 522.26 51.2854 521.793 51.7529 521.325 52.387 521.062 53.0482 521.062 53.7094 521.062 54.3435 521.325 54.811 521.793 55.2785 522.26 55.5412 522.894 55.5412 523.555 55.5412 526.421 56.6793 529.168 58.7053 531.194 60.7313 533.22 63.479 534.359 66.3442 534.359 69.2093 534.359 71.9571 533.22 73.983 531.194 76.009 529.168 77.1472 526.421 77.1472 523.555 77.1472 522.894 77.4098 522.26 77.8774 521.793 78.3449 521.325 78.979 521.062 79.6402 521.062 80.3014 521.062 80.9355 521.325 81.403 521.793 81.8705 522.26 82.1332 522.894 82.1332 523.555 82.1282 527.741 80.463 531.754 77.5031 534.714 74.5431 537.674 70.53 539.339 66.3442 539.344Z" fill="#24AFB2"/><path d="M99.976 537.686C97.569 538.887 94.8952 539.453 92.2082 539.33 89.5212 539.207 86.9102 538.399 84.623 536.984 82.3358 535.568 80.4482 533.591 79.1395 531.242 77.8307 528.892 77.1442 526.246 77.145 523.556 77.1852 522.922 77.4656 522.327 77.929 521.892 78.3925 521.457 79.0043 521.214 79.64 521.214 80.2757 521.214 80.8875 521.457 81.351 521.892 81.8145 522.327 82.0948 522.922 82.135 523.556 82.1353 525.354 82.5841 527.122 83.4408 528.702 84.2974 530.282 85.5348 531.624 87.0409 532.605 88.5469 533.585 90.2739 534.175 92.0654 534.32 93.8568 534.464 95.6561 534.16 97.3 533.433 98.175 534.846 99.065 536.256 99.976 537.686ZM146.334 759.094C142.148 759.089 138.135 757.424 135.175 754.464 132.215 751.504 130.55 747.491 130.546 743.305 130.539 742.974 130.599 742.644 130.721 742.336 130.843 742.028 131.026 741.747 131.258 741.51 131.49 741.273 131.767 741.085 132.073 740.957 132.379 740.828 132.707 740.762 133.038 740.762 133.37 740.762 133.698 740.828 134.004 740.957 134.31 741.085 134.587 741.273 134.819 741.51 135.051 741.747 135.233 742.028 135.356 742.336 135.478 742.644 135.538 742.974 135.531 743.305 135.531 746.17 136.669 748.918 138.695 750.944 140.721 752.97 143.469 754.108 146.334 754.108 149.199 754.108 151.947 752.97 153.973 750.944 155.999 748.918 157.137 746.17 157.137 743.305 157.137 742.978 157.201 742.654 157.327 742.351 157.452 742.049 157.636 741.774 157.867 741.542 158.099 741.311 158.373 741.127 158.676 741.002 158.978 740.877 159.303 740.812 159.63 740.812 159.957 740.812 160.281 740.877 160.584 741.002 160.886 741.127 161.161 741.311 161.393 741.542 161.624 741.774 161.808 742.049 161.933 742.351 162.058 742.654 162.123 742.978 162.123 743.305 162.118 747.491 160.453 751.504 157.493 754.464 154.533 757.424 150.52 759.089 146.334 759.094Z" fill="#24AFB2"/><path d="M172.926 759.094C168.74 759.089 164.726 757.424 161.766 754.464C158.806 751.504 157.141 747.491 157.137 743.305C157.137 742.978 157.201 742.653 157.326 742.351C157.452 742.049 157.635 741.774 157.867 741.542C158.098 741.311 158.373 741.127 158.676 741.002C158.978 740.876 159.302 740.812 159.63 740.812C159.957 740.812 160.281 740.876 160.584 741.002C160.886 741.127 161.161 741.311 161.393 741.542C161.624 741.774 161.808 742.049 161.933 742.351C162.058 742.653 162.123 742.978 162.123 743.305C162.123 746.17 163.261 748.918 165.287 750.944C167.313 752.97 170.061 754.108 172.926 754.108C175.791 754.108 178.539 752.97 180.565 750.944C182.591 748.918 183.729 746.17 183.729 743.305C183.729 742.644 183.991 742.01 184.459 741.542C184.926 741.075 185.561 740.812 186.222 740.812C186.883 740.812 187.517 741.075 187.985 741.542C188.452 742.01 188.715 742.644 188.715 743.305C188.71 747.491 187.045 751.504 184.085 754.464C181.125 757.424 177.112 759.089 172.926 759.094Z" fill="#24AFB2"/><path d="M197.716 741.186C195.49 743.345 192.678 744.8 189.631 745.369 186.583 745.938 183.435 745.596 180.581 744.386 177.726 743.176 175.292 741.151 173.582 738.565 171.872 735.979 170.962 732.947 170.966 729.846 171.006 729.212 171.286 728.617 171.75 728.182 172.213 727.747 172.825 727.504 173.461 727.504 174.097 727.504 174.708 727.747 175.172 728.182 175.635 728.617 175.916 729.212 175.956 729.846 175.956 732.031 176.619 734.163 177.857 735.963 179.095 737.763 180.85 739.145 182.889 739.927 184.929 740.709 187.157 740.855 189.281 740.344 191.405 739.833 193.324 738.69 194.785 737.066 195.736 738.426 196.713 739.8 197.716 741.186ZM1535 661.309C1530.81 661.305 1526.8 659.64 1523.84 656.68 1520.88 653.721 1519.22 649.707 1519.21 645.521 1519.21 644.86 1519.47 644.226 1519.94 643.759 1520.41 643.291 1521.04 643.028 1521.7 643.028 1522.37 643.028 1523 643.291 1523.47 643.759 1523.93 644.226 1524.2 644.86 1524.2 645.521 1524.2 648.387 1525.34 651.134 1527.36 653.16 1529.39 655.186 1532.13 656.324 1535 656.324 1537.87 656.324 1540.61 655.186 1542.64 653.16 1544.66 651.134 1545.8 648.387 1545.8 645.521 1545.8 645.19 1545.86 644.86 1545.98 644.552 1546.1 644.244 1546.28 643.963 1546.52 643.726 1546.75 643.49 1547.02 643.302 1547.33 643.173 1547.64 643.045 1547.96 642.979 1548.3 642.979 1548.63 642.979 1548.96 643.045 1549.26 643.173 1549.57 643.302 1549.84 643.49 1550.08 643.726 1550.31 643.963 1550.49 644.244 1550.61 644.552 1550.73 644.86 1550.79 645.19 1550.79 645.521 1550.78 649.707 1549.12 653.72 1546.16 656.68 1543.2 659.64 1539.19 661.305 1535 661.309Z" fill="#24AFB2"/><path d="M1561.59 661.309C1557.41 661.305 1553.39 659.64 1550.44 656.68C1547.48 653.72 1545.81 649.707 1545.81 645.521C1545.8 645.19 1545.86 644.86 1545.98 644.552C1546.1 644.244 1546.29 643.963 1546.52 643.726C1546.75 643.49 1547.03 643.302 1547.33 643.173C1547.64 643.045 1547.97 642.979 1548.3 642.979C1548.63 642.979 1548.96 643.045 1549.26 643.173C1549.57 643.302 1549.85 643.49 1550.08 643.726C1550.31 643.963 1550.49 644.244 1550.62 644.552C1550.74 644.86 1550.8 645.19 1550.79 645.521C1550.79 648.387 1551.93 651.134 1553.95 653.16C1555.98 655.186 1558.73 656.324 1561.59 656.324C1564.46 656.324 1567.21 655.186 1569.23 653.16C1571.26 651.134 1572.4 648.387 1572.4 645.521C1572.4 644.86 1572.66 644.226 1573.13 643.759C1573.59 643.291 1574.23 643.028 1574.89 643.028C1575.55 643.028 1576.19 643.291 1576.65 643.759C1577.12 644.226 1577.38 644.86 1577.38 645.521C1577.38 649.707 1575.71 653.721 1572.75 656.68C1569.79 659.64 1565.78 661.305 1561.59 661.309Z" fill="#24AFB2"/><path d="M1575.42 647.851C1571.24 647.847 1567.22 646.182 1564.26 643.222C1561.3 640.262 1559.64 636.248 1559.63 632.062C1559.63 631.401 1559.9 630.767 1560.36 630.299C1560.83 629.832 1561.47 629.569 1562.13 629.569C1562.79 629.569 1563.42 629.832 1563.89 630.299C1564.36 630.767 1564.62 631.401 1564.62 632.062C1564.62 634.927 1565.76 637.675 1567.78 639.701C1569.81 641.727 1572.56 642.865 1575.42 642.865C1578.29 642.865 1581.04 641.727 1583.06 639.701C1585.09 637.675 1586.23 634.927 1586.23 632.062C1586.23 631.401 1586.49 630.767 1586.96 630.299C1587.42 629.832 1588.06 629.569 1588.72 629.569C1589.38 629.569 1590.01 629.832 1590.48 630.299C1590.95 630.767 1591.21 631.401 1591.21 632.062C1591.21 636.248 1589.54 640.262 1586.58 643.222C1583.62 646.182 1579.61 647.847 1575.42 647.851Z" fill="#24AFB2"/><path d="M1600 642.676V647.716C1596.2 647.224 1592.7 645.364 1590.17 642.484 1587.63 639.605 1586.23 635.902 1586.23 632.066 1586.21 631.726 1586.26 631.385 1586.38 631.065 1586.49 630.744 1586.67 630.451 1586.91 630.203 1587.14 629.954 1587.42 629.757 1587.73 629.621 1588.05 629.486 1588.38 629.417 1588.73 629.417 1589.07 629.417 1589.4 629.486 1589.72 629.621 1590.03 629.757 1590.31 629.954 1590.55 630.203 1590.78 630.451 1590.96 630.744 1591.08 631.065 1591.19 631.385 1591.24 631.726 1591.22 632.066 1591.22 634.58 1592.1 637.013 1593.7 638.949 1595.31 640.886 1597.53 642.203 1600 642.676ZM1546.34 585.957C1546.33 590.143 1544.67 594.156 1541.71 597.116 1538.75 600.076 1534.73 601.741 1530.55 601.747 1528.33 601.75 1526.13 601.28 1524.1 600.367L1526.03 595.757C1527.44 596.417 1528.98 596.758 1530.55 596.757 1533.41 596.755 1536.16 595.617 1538.18 593.593 1540.21 591.568 1541.35 588.821 1541.35 585.957 1541.37 585.305 1541.64 584.684 1542.1 584.228 1542.57 583.771 1543.19 583.516 1543.85 583.516 1544.5 583.516 1545.12 583.771 1545.59 584.228 1546.05 584.684 1546.32 585.305 1546.34 585.957Z" fill="#24AFB2"/><path d="M1557.14 601.743C1552.96 601.738 1548.94 600.073 1545.98 597.113 1543.02 594.153 1541.36 590.14 1541.35 585.954 1541.35 585.293 1541.62 584.659 1542.08 584.192 1542.55 583.724 1543.18 583.461 1543.85 583.461 1544.51 583.461 1545.14 583.724 1545.61 584.192 1546.08 584.659 1546.34 585.293 1546.34 585.954 1546.34 588.819 1547.48 591.567 1549.5 593.593 1551.53 595.619 1554.28 596.757 1557.14 596.757 1560.01 596.757 1562.75 595.619 1564.78 593.593 1566.81 591.567 1567.94 588.819 1567.94 585.954 1567.94 585.293 1568.21 584.659 1568.67 584.192 1569.14 583.724 1569.78 583.461 1570.44 583.461 1571.1 583.461 1571.73 583.724 1572.2 584.192 1572.67 584.659 1572.93 585.293 1572.93 585.954 1572.93 590.141 1571.26 594.154 1568.3 597.114 1565.34 600.074 1561.33 601.739 1557.14 601.743ZM1324.13 1187.25C1319.94 1187.24 1315.93 1185.58 1312.97 1182.62 1310.01 1179.66 1308.34 1175.65 1308.34 1171.46 1308.34 1170.8 1308.6 1170.17 1309.07 1169.7 1309.54 1169.23 1310.17 1168.97 1310.83 1168.97 1311.49 1168.97 1312.13 1169.23 1312.59 1169.7 1313.06 1170.17 1313.32 1170.8 1313.32 1171.46 1313.32 1174.33 1314.46 1177.07 1316.49 1179.1 1318.51 1181.13 1321.26 1182.26 1324.13 1182.26 1326.99 1182.26 1329.74 1181.13 1331.77 1179.1 1333.79 1177.07 1334.93 1174.33 1334.93 1171.46 1334.93 1170.8 1335.19 1170.17 1335.66 1169.7 1336.13 1169.23 1336.76 1168.97 1337.42 1168.97 1338.09 1168.97 1338.72 1169.23 1339.19 1169.7 1339.65 1170.17 1339.92 1170.8 1339.92 1171.46 1339.91 1175.65 1338.25 1179.66 1335.29 1182.62 1332.33 1185.58 1328.31 1187.24 1324.13 1187.25Z" fill="#24AFB2"/><path d="M1350.72 1187.25C1346.53 1187.24 1342.52 1185.58 1339.56 1182.62C1336.6 1179.66 1334.94 1175.65 1334.93 1171.46C1334.93 1170.8 1335.19 1170.17 1335.66 1169.7C1336.13 1169.23 1336.76 1168.97 1337.42 1168.97C1338.09 1168.97 1338.72 1169.23 1339.19 1169.7C1339.65 1170.17 1339.92 1170.8 1339.92 1171.46C1339.92 1174.33 1341.05 1177.07 1343.08 1179.1C1345.11 1181.12 1347.85 1182.26 1350.72 1182.26C1353.58 1182.26 1356.33 1181.12 1358.36 1179.1C1360.38 1177.07 1361.52 1174.33 1361.52 1171.46C1361.52 1170.8 1361.78 1170.17 1362.25 1169.7C1362.72 1169.23 1363.35 1168.97 1364.01 1168.97C1364.68 1168.97 1365.31 1169.23 1365.78 1169.7C1366.25 1170.17 1366.51 1170.8 1366.51 1171.46C1366.5 1175.65 1364.84 1179.66 1361.88 1182.62C1358.92 1185.58 1354.91 1187.24 1350.72 1187.25Z" fill="#24AFB2"/><path d="M1364.55 1173.79C1360.36 1173.79 1356.35 1172.12 1353.39 1169.16C1350.43 1166.2 1348.77 1162.19 1348.76 1158C1348.76 1157.34 1349.02 1156.71 1349.49 1156.24C1349.96 1155.77 1350.59 1155.51 1351.25 1155.51C1351.91 1155.51 1352.55 1155.77 1353.02 1156.24C1353.48 1156.71 1353.75 1157.34 1353.75 1158C1353.75 1160.87 1354.88 1163.62 1356.91 1165.64C1358.94 1167.67 1361.68 1168.8 1364.55 1168.8C1367.41 1168.8 1370.16 1167.67 1372.19 1165.64C1374.21 1163.62 1375.35 1160.87 1375.35 1158C1375.35 1157.34 1375.61 1156.71 1376.08 1156.24C1376.55 1155.77 1377.18 1155.51 1377.84 1155.51C1378.51 1155.51 1379.14 1155.77 1379.61 1156.24C1380.07 1156.71 1380.34 1157.34 1380.34 1158C1380.33 1162.19 1378.67 1166.2 1375.71 1169.16C1372.75 1172.12 1368.73 1173.79 1364.55 1173.79Z" fill="#24AFB2"/><path d="M1391.14 1173.79C1386.95 1173.79 1382.94 1172.12 1379.98 1169.16 1377.02 1166.2 1375.36 1162.19 1375.35 1158 1375.35 1157.34 1375.61 1156.71 1376.08 1156.24 1376.55 1155.77 1377.18 1155.51 1377.84 1155.51 1378.51 1155.51 1379.14 1155.77 1379.61 1156.24 1380.07 1156.71 1380.34 1157.34 1380.34 1158 1380.34 1160.87 1381.48 1163.62 1383.5 1165.64 1385.53 1167.67 1388.28 1168.81 1391.14 1168.81 1394.01 1168.81 1396.75 1167.67 1398.78 1165.64 1400.81 1163.62 1401.94 1160.87 1401.94 1158 1401.94 1157.34 1402.21 1156.71 1402.67 1156.24 1403.14 1155.77 1403.77 1155.51 1404.44 1155.51 1405.1 1155.51 1405.73 1155.77 1406.2 1156.24 1406.67 1156.71 1406.93 1157.34 1406.93 1158 1406.92 1162.19 1405.26 1166.2 1402.3 1169.16 1399.34 1172.12 1395.33 1173.79 1391.14 1173.79ZM1393.63 1125.79C1389.45 1125.78 1385.43 1124.12 1382.47 1121.16 1379.51 1118.2 1377.85 1114.19 1377.84 1110 1377.84 1109.34 1378.11 1108.71 1378.57 1108.24 1379.04 1107.77 1379.68 1107.51 1380.34 1107.51 1381 1107.51 1381.63 1107.77 1382.1 1108.24 1382.57 1108.71 1382.83 1109.34 1382.83 1110 1382.83 1112.87 1383.97 1115.61 1385.99 1117.64 1388.02 1119.67 1390.77 1120.8 1393.63 1120.8 1396.5 1120.8 1399.25 1119.67 1401.27 1117.64 1403.3 1115.61 1404.44 1112.87 1404.44 1110 1404.44 1109.34 1404.7 1108.71 1405.17 1108.24 1405.63 1107.77 1406.27 1107.51 1406.93 1107.51 1407.59 1107.51 1408.22 1107.77 1408.69 1108.24 1409.16 1108.71 1409.42 1109.34 1409.42 1110 1409.42 1114.19 1407.75 1118.2 1404.79 1121.16 1401.83 1124.12 1397.82 1125.78 1393.63 1125.79Z" fill="#24AFB2"/><path d="M1425.57 1124.86C1423.19 1125.71 1420.64 1125.98 1418.12 1125.64 1415.61 1125.31 1413.22 1124.37 1411.15 1122.91 1409.08 1121.46 1407.38 1119.52 1406.22 1117.27 1405.05 1115.03 1404.44 1112.53 1404.44 1110 1404.48 1109.36 1404.76 1108.77 1405.22 1108.33 1405.68 1107.9 1406.29 1107.65 1406.93 1107.65 1407.57 1107.65 1408.18 1107.9 1408.64 1108.33 1409.1 1108.77 1409.38 1109.36 1409.43 1110 1409.42 1111.64 1409.8 1113.26 1410.51 1114.73 1411.23 1116.21 1412.28 1117.5 1413.57 1118.51 1414.86 1119.52 1416.37 1120.23 1417.98 1120.57 1419.58 1120.91 1421.24 1120.88 1422.84 1120.49 1423.73 1121.93 1424.63 1123.39 1425.57 1124.86ZM1207.35 1139.08C1203.16 1139.08 1199.15 1137.41 1196.19 1134.45 1193.23 1131.49 1191.56 1127.48 1191.56 1123.3 1191.56 1122.63 1191.82 1122 1192.29 1121.53 1192.76 1121.06 1193.39 1120.8 1194.05 1120.8 1194.71 1120.8 1195.35 1121.06 1195.81 1121.53 1196.28 1122 1196.55 1122.63 1196.55 1123.3 1196.55 1126.16 1197.68 1128.91 1199.71 1130.93 1201.74 1132.96 1204.48 1134.1 1207.35 1134.1 1210.21 1134.1 1212.96 1132.96 1214.99 1130.93 1217.01 1128.91 1218.15 1126.16 1218.15 1123.3 1218.15 1122.63 1218.41 1122 1218.88 1121.53 1219.35 1121.06 1219.98 1120.8 1220.64 1120.8 1221.31 1120.8 1221.94 1121.06 1222.41 1121.53 1222.87 1122 1223.14 1122.63 1223.14 1123.3 1223.13 1127.48 1221.47 1131.49 1218.51 1134.45 1215.55 1137.41 1211.53 1139.08 1207.35 1139.08Z" fill="#24AFB2"/><path d="M1233.94 1139.08C1229.75 1139.08 1225.74 1137.41 1222.78 1134.45C1219.82 1131.49 1218.16 1127.48 1218.15 1123.3C1218.15 1122.63 1218.41 1122 1218.88 1121.53C1219.35 1121.06 1219.98 1120.8 1220.64 1120.8C1221.31 1120.8 1221.94 1121.06 1222.41 1121.53C1222.87 1122 1223.14 1122.63 1223.14 1123.3C1223.14 1126.16 1224.28 1128.91 1226.3 1130.93C1228.33 1132.96 1231.07 1134.1 1233.94 1134.1C1236.81 1134.1 1239.55 1132.96 1241.58 1130.93C1243.6 1128.91 1244.74 1126.16 1244.74 1123.3C1244.74 1122.96 1244.8 1122.63 1244.92 1122.33C1245.04 1122.02 1245.22 1121.74 1245.46 1121.5C1245.69 1121.26 1245.96 1121.08 1246.27 1120.95C1246.58 1120.82 1246.9 1120.75 1247.24 1120.75C1247.57 1120.75 1247.9 1120.82 1248.2 1120.95C1248.51 1121.08 1248.78 1121.26 1249.02 1121.5C1249.25 1121.74 1249.43 1122.02 1249.55 1122.33C1249.68 1122.63 1249.73 1122.96 1249.73 1123.3C1249.72 1127.48 1248.06 1131.49 1245.1 1134.45C1242.14 1137.41 1238.13 1139.08 1233.94 1139.08Z" fill="#24AFB2"/><path d="M1257.7 1122.11C1255.38 1123.98 1252.58 1125.17 1249.62 1125.52C1246.66 1125.87 1243.66 1125.37 1240.97 1124.09C1238.28 1122.8 1236 1120.78 1234.41 1118.26C1232.82 1115.74 1231.98 1112.82 1231.98 1109.84C1232.02 1109.2 1232.3 1108.61 1232.77 1108.17C1233.23 1107.74 1233.84 1107.49 1234.48 1107.49C1235.11 1107.49 1235.72 1107.74 1236.19 1108.17C1236.65 1108.61 1236.93 1109.2 1236.97 1109.84C1236.97 1111.9 1237.56 1113.92 1238.68 1115.66C1239.79 1117.4 1241.38 1118.78 1243.25 1119.65C1245.13 1120.51 1247.21 1120.82 1249.26 1120.54C1251.3 1120.25 1253.22 1119.39 1254.79 1118.05C1255.73 1119.39 1256.7 1120.75 1257.7 1122.11Z" fill="#24AFB2"/></svg>