<!DOCTYPE svg PUBLIC "-//W3C//DTD SVG 1.1//EN" "http://www.w3.org/Graphics/SVG/1.1/DTD/svg11.dtd">
<!-- Uploaded to: SVG Repo, www.svgrepo.com, Transformed by: SVG Repo Mixer Tools -->
<svg fill="#000000" xmlns="http://www.w3.org/2000/svg" width="800px" height="800px" viewBox="0 0 100 100" enable-background="new 0 0 100 100" xml:space="preserve">
<g id="SVGRepo_bgCarrier" stroke-width="0"/>
<g id="SVGRepo_tracerCarrier" stroke-linecap="round" stroke-linejoin="round" stroke="#CCCCCC" stroke-width="0.8"/>
<g id="SVGRepo_iconCarrier"> <path d="M55.9,49.3l22.7-22.8c0.8-0.8,0.8-2,0-2.9l-2.7-2.9c-0.8-0.8-2-0.8-2.9,0L50.1,43.6c-0.5,0.5-1.4,0.5-1.9,0 l-22.8-23c-0.8-0.8-2-0.8-2.9,0l-2.9,2.9c-0.8,0.8-0.8,2,0,2.9l22.8,22.8c0.5,0.5,0.5,1.4,0,1.9L19.6,74c-0.8,0.8-0.8,2,0,2.9 l2.9,2.9c0.8,0.8,2,0.8,2.9,0l22.8-22.8c0.5-0.5,1.4-0.5,1.9,0l22.6,22.6c0.8,0.8,2,0.8,2.9,0l2.9-2.9c0.8-0.8,0.8-2,0-2.9 L55.9,51.2C55.3,50.6,55.3,49.8,55.9,49.3z"/> </g>
</svg>